<?xml version="1.0" standalone="no"?>
<!DOCTYPE svg PUBLIC "-//W3C//DTD SVG 20010904//EN"
 "http://www.w3.org/TR/2001/REC-SVG-20010904/DTD/svg10.dtd">
<svg version="1.0" xmlns="http://www.w3.org/2000/svg"
 width="1024.000000pt" height="1024.000000pt" viewBox="0 0 1024.000000 1024.000000"
 preserveAspectRatio="xMidYMid meet">
<metadata>
Created by potrace 1.14, written by Peter Selinger 2001-2017
</metadata>
<g transform="translate(0.000000,1024.000000) scale(0.100000,-0.100000)"
fill="#000000" stroke="none">
<path d="M515 10224 c-335 -73 -529 -334 -511 -689 3 -60 8 -120 11 -133 2
-13 7 -53 10 -90 3 -37 8 -78 10 -92 5 -31 13 -90 20 -155 12 -119 17 -162 21
-189 3 -16 7 -54 10 -85 2 -30 6 -67 9 -81 2 -14 7 -53 10 -87 3 -34 7 -70 9
-80 2 -10 7 -47 11 -83 15 -144 24 -227 30 -270 9 -68 14 -116 20 -167 8 -86
15 -146 20 -183 3 -19 7 -62 10 -95 3 -33 8 -71 10 -85 2 -14 7 -52 10 -85 3
-33 9 -78 12 -100 3 -22 7 -53 8 -70 2 -16 6 -55 9 -85 8 -70 43 -368 52 -440
9 -83 11 -99 19 -175 4 -38 9 -78 10 -87 2 -9 7 -48 10 -85 4 -37 8 -79 10
-93 5 -31 11 -84 25 -215 6 -55 13 -111 15 -125 3 -14 7 -54 11 -90 3 -36 7
-76 9 -90 2 -14 7 -50 10 -80 3 -30 10 -89 15 -130 5 -41 11 -97 14 -125 13
-109 23 -198 31 -262 2 -21 7 -63 10 -93 10 -98 16 -145 20 -170 2 -14 7 -52
10 -85 4 -33 9 -78 11 -100 3 -22 7 -62 10 -90 2 -27 6 -63 8 -80 7 -42 13
-98 31 -260 9 -77 18 -151 20 -165 2 -14 6 -56 10 -93 3 -37 8 -76 10 -85 2
-16 6 -51 21 -187 3 -27 9 -84 14 -125 10 -82 17 -144 25 -217 3 -27 8 -64 10
-83 3 -19 7 -57 10 -85 10 -87 16 -139 20 -165 2 -14 6 -52 10 -85 10 -100 16
-146 25 -225 5 -41 12 -102 15 -135 3 -33 7 -71 10 -85 2 -14 7 -52 10 -85 3
-33 8 -71 10 -85 2 -14 6 -52 10 -85 4 -33 8 -73 10 -90 2 -16 7 -57 10 -90 3
-33 8 -73 10 -90 3 -16 7 -52 10 -80 3 -27 7 -69 10 -92 12 -106 16 -140 20
-168 2 -16 6 -55 9 -85 11 -101 17 -155 21 -180 2 -14 7 -44 10 -68 9 -61 52
-185 90 -262 72 -141 200 -293 330 -390 83 -62 87 -64 200 -119 138 -68 229
-92 400 -106 39 -3 90 -8 115 -10 25 -3 81 -7 125 -10 44 -3 96 -8 115 -10 19
-2 77 -7 128 -10 52 -4 101 -8 110 -10 10 -1 64 -6 122 -10 58 -4 112 -9 120
-10 8 -1 60 -6 115 -9 55 -4 111 -9 125 -11 14 -2 66 -6 115 -10 50 -3 108 -8
130 -10 22 -2 69 -7 105 -9 156 -13 207 -17 245 -21 22 -3 81 -7 130 -10 50
-4 101 -8 115 -10 14 -2 68 -6 120 -10 52 -4 106 -8 120 -10 14 -2 68 -7 120
-10 52 -4 106 -8 120 -10 14 -2 68 -6 120 -10 52 -3 106 -8 120 -10 14 -2 70
-7 124 -10 55 -4 107 -8 115 -10 9 -1 63 -6 121 -10 58 -4 112 -9 122 -10 9
-2 58 -6 110 -10 51 -3 109 -8 128 -10 19 -2 71 -7 115 -10 44 -3 100 -8 125
-10 25 -2 81 -7 125 -10 44 -4 96 -8 115 -10 19 -2 78 -7 130 -10 52 -4 102
-9 110 -10 8 -1 65 -6 125 -10 61 -4 117 -8 125 -10 8 -2 58 -6 110 -9 52 -4
106 -9 120 -11 14 -2 66 -7 115 -10 50 -3 108 -8 130 -10 22 -3 76 -7 120 -10
44 -3 98 -8 120 -10 22 -2 76 -7 120 -10 44 -3 98 -8 120 -10 39 -4 100 -9
240 -20 39 -3 90 -8 115 -10 25 -2 79 -7 120 -10 41 -3 95 -8 120 -10 41 -4
71 -6 245 -20 33 -2 85 -7 115 -10 62 -5 136 -11 255 -21 44 -3 96 -7 115 -9
19 -2 69 -6 110 -10 41 -3 95 -8 120 -10 25 -2 78 -7 118 -10 190 -14 219 -16
242 -20 14 -2 66 -7 116 -10 51 -4 105 -8 120 -10 100 -14 304 -13 369 1 142
32 282 121 367 234 120 160 146 334 103 695 -2 17 -6 55 -10 85 -3 30 -8 66
-10 80 -2 14 -6 61 -10 105 -3 44 -8 87 -10 95 -2 8 -7 47 -10 85 -3 39 -8 84
-10 100 -9 71 -15 124 -21 190 -3 39 -8 84 -10 100 -2 17 -6 55 -9 85 -3 30
-8 73 -10 95 -2 22 -7 67 -10 100 -3 33 -8 71 -10 85 -2 14 -7 52 -10 85 -6
67 -12 124 -20 188 -3 23 -7 65 -10 92 -8 86 -16 159 -20 195 -3 19 -7 62 -11
95 -5 60 -10 102 -19 182 -10 85 -14 129 -20 198 -3 39 -8 77 -10 85 -2 8 -7
51 -11 95 -3 44 -7 87 -9 95 -1 8 -6 49 -10 90 -3 41 -8 86 -10 100 -2 14 -6
50 -10 80 -3 30 -8 71 -10 90 -3 19 -7 67 -11 105 -3 39 -7 81 -9 95 -2 14 -6
54 -10 90 -4 36 -8 76 -10 90 -2 14 -6 57 -10 95 -7 73 -10 100 -19 175 -3 25
-8 72 -11 105 -4 33 -8 74 -10 90 -2 17 -7 57 -10 90 -8 86 -15 149 -25 235
-5 41 -12 109 -15 150 -3 41 -8 82 -10 90 -2 8 -7 47 -10 85 -3 39 -8 88 -10
110 -12 112 -16 143 -19 161 -2 10 -7 60 -11 109 -4 50 -8 92 -10 95 -2 3 -6
43 -10 90 -4 47 -9 93 -10 102 -2 9 -6 45 -10 80 -3 35 -8 79 -10 98 -2 19 -7
62 -10 94 -3 33 -7 73 -10 90 -2 17 -7 63 -10 101 -4 39 -9 85 -11 103 -2 18
-6 56 -9 85 -3 28 -7 68 -10 87 -2 19 -6 64 -10 100 -3 36 -7 76 -10 90 -2 14
-7 52 -10 85 -12 123 -15 151 -21 195 -2 25 -7 68 -9 95 -5 56 -14 134 -20
180 -4 30 -10 87 -20 200 -3 33 -8 71 -10 85 -2 14 -7 54 -10 90 -3 36 -8 81
-10 100 -3 19 -7 60 -10 90 -5 54 -8 77 -20 170 -28 210 -144 428 -318 601
-69 69 -213 179 -233 179 -4 0 -15 6 -23 14 -9 7 -56 29 -106 49 -86 34 -208
59 -480 97 -44 6 -91 13 -105 15 -14 2 -45 7 -70 10 -25 3 -70 10 -100 15 -30
5 -73 11 -95 14 -39 5 -235 33 -285 41 -14 2 -88 13 -165 24 -77 11 -156 23
-175 25 -19 3 -97 15 -172 26 -76 12 -150 23 -165 25 -85 11 -193 26 -214 30
-13 3 -42 7 -64 9 -22 3 -71 10 -110 16 -38 6 -81 13 -95 15 -48 7 -115 17
-140 20 -14 2 -45 6 -70 10 -25 4 -56 8 -70 10 -14 2 -56 8 -95 14 -38 6 -88
13 -110 16 -22 3 -67 10 -100 15 -47 7 -316 46 -440 65 -11 1 -38 5 -60 8 -22
4 -89 13 -150 22 -60 9 -121 18 -135 20 -14 2 -61 9 -105 15 -101 14 -134 19
-165 25 -14 2 -47 7 -75 10 -27 3 -61 8 -75 10 -43 9 -574 87 -590 87 -8 0
-33 4 -55 8 -22 5 -62 11 -90 15 -27 3 -111 15 -185 25 -74 11 -153 22 -175
25 -22 3 -51 8 -65 10 -14 3 -45 7 -70 10 -25 3 -70 10 -100 15 -30 5 -72 12
-94 15 -61 7 -114 15 -216 31 -52 8 -112 17 -135 20 -22 2 -67 9 -100 14 -33
5 -80 12 -105 15 -25 3 -85 12 -135 20 -49 7 -110 16 -135 19 -25 4 -56 8 -70
11 -14 2 -91 14 -173 25 -81 12 -155 23 -166 25 -10 2 -42 6 -72 10 -30 3 -61
8 -69 10 -8 2 -40 7 -70 10 -30 3 -62 8 -70 10 -8 2 -40 7 -70 10 -30 3 -62 8
-70 10 -8 2 -35 7 -60 10 -25 3 -74 11 -110 17 -36 5 -72 10 -80 10 -8 0 -36
4 -62 9 -26 5 -69 11 -95 14 -26 4 -73 10 -103 15 -30 5 -75 12 -100 15 -25 3
-72 11 -105 16 -94 16 -292 18 -360 3z"/>
</g>
</svg>
